<svg id="Слой_1" data-name="Слой 1" xmlns="http://www.w3.org/2000/svg" viewBox="0 0 150 190"><defs><style>.cls-1{fill-rule:evenodd;}</style></defs><title>Монтажная область 33</title><path class="cls-1" d="M75.12,146.59v-6.26l8,.69,1-14.52,17.62.62L101.6,73l-54.23-.66-.6,65.53,10.95,1,.67-4.16,13.11,1.42-1.33,16.74-7.45-4.52-6.95,2.53.94-5.8L41,143.7l1-77.53,65.42,1.47v64.94L88,147.69ZM95.33,82.1l-.12,6.5L55.35,87.4l.12-6.5ZM55.1,100.41l.12-6.5,30.61,1.14-.13,6.5Zm19.4,28.18-1,4.24-17-1.55.08-5.67L53,121.08l3.5-3.54.11-6.18,5.1.15,2.53-4.43,4.81,3.5,5-1.74,1.24,5.63L80.06,117,78,121.42l1.21,5.15Z"/></svg>