<svg id="Слой_1" data-name="Слой 1" xmlns="http://www.w3.org/2000/svg" viewBox="0 0 150 190"><defs><style>.cls-1{fill-rule:evenodd;}</style></defs><title>Монтажная область 7</title><path class="cls-1" d="M71.5,58.84,86,72.59l.54-12c10.25,3.28,18.37,10.94,18.39,23l-59.86-.86C45.05,67.75,57.78,59.84,71.5,58.84ZM92.16,88.37,89.3,99.13,69.05,88.38ZM87.27,112l-1.47,6-24.42-14.1L61,98l-5.1-10.43,38.78,21.27Zm-4.36,16.9-1.69,4.88-14.15-7.49L66.28,120l-7.06-10.5,30.53,16.76Zm-3.45,15.33-3.9,7.69-3.91-9.79-8-11.29L85,141.73Z"/></svg>